<svg xmlns="http://www.w3.org/2000/svg" xmlns:xlink="http://www.w3.org/1999/xlink" id="Capa_1" x="0px" y="0px" width="992px" height="375px" viewBox="46.25 7.5 992 375" xml:space="preserve"><g>	<g>		<g>			<path fill="#9216F9" d="M838.526,328.525c-3.144,0-5.693-2.549-5.693-5.692V302.43h-19.138c-3.144,0-5.692-2.549-5.692-5.693    c0-3.146,2.549-5.694,5.692-5.694h24.831c3.146,0,5.694,2.549,5.694,5.694v26.097    C844.221,325.977,841.672,328.525,838.526,328.525z"></path>		</g>	</g>	<path fill="#2E0073" d="M902.07,337.256c-18.191-17.214-30.689-37.535-35.771-62.238c-2.204-10.704-3.215-21.375-3.219-32.298  c-0.013-63.021-0.017-126.042-0.012-189.065c0-4.184,0.225-7.297,0.682-9.343c4.129-18.67,25.344-28.109,42.007-18.417  c7.905,4.597,13.495,12.723,13.691,22.25c0.375,18.52,0.589,34.07,0.632,46.649c0.014,3.262,0.133,6.177,0.358,8.744  c0.384,4.221,2.738,5.089,6.731,5.093c20.484,0.02,40.969,0.08,61.457,0.171c10.916,0.052,20.614,5.22,26.116,14.502  c10.885,18.36-2.675,40.166-22.11,43.472c-1.932,0.33-5.085,0.501-9.462,0.514c-17.362,0.049-34.719,0.108-52.076,0.179  c-1.979,0.006-3.954,0.086-5.927,0.239c-5.935,0.454-5.099,7.761-5.108,11.819c-0.044,18.475,0.005,36.948,0.147,55.421  c0.145,19.006,4.641,37.352,17.418,51.204c10.854,11.773,25.195,19.65,41.187,21.466c3.91,0.44,9.935,0.469,15.304,1.894  c11.567,3.058,20.014,12.585,22.594,24.056c3.287,14.563-6.723,32.896-21.683,36.38c-3.684,0.859-6.902,0.729-11.531,0.634  C952.011,369.933,924.867,358.824,902.07,337.256z"></path>	<path fill="#2E0073" d="M376.419,360.677c-15.386,17.515-45.027,10.434-49.929-12.978c-0.404-1.941-0.614-5.088-0.626-9.446  c-0.151-52.387-0.205-86.003-0.157-100.845c0.085-24.908,7.338-51.195,21.41-71.883c13.244-19.477,32.127-36.297,53.538-46.343  c39.25-18.415,87.274-11.781,120.841,15.376c25.569,20.692,43.317,49.818,48.548,82.447c1.404,8.745,2.148,17.85,2.232,27.316  c0.285,32.272,0.311,64.54,0.08,96.812c-0.063,8.996-3.376,16.416-9.939,22.26c-8.729,7.777-21.998,9.205-32.43,4.438  c-8.318-3.797-14.193-11.237-16.126-20.179c-0.434-1.989-0.65-4.872-0.646-8.645c0.032-33.522-0.361-67.103-0.014-100.619  c0.341-33.038-22.109-61.101-55.047-66.132c-36.295-5.543-69.922,20.459-74.004,56.811c-0.435,3.92-0.382,8.321-0.394,12.522  c-0.095,33.102-0.147,66.201-0.157,99.303C383.597,348.637,381.203,355.229,376.419,360.677z"></path>	<path fill="#2E0073" d="M189.218,267.048c20.47-44.64,40.933-89.282,61.392-133.926c2.218-4.839,3.58-7.693,4.088-8.562  c14.896-25.636,52.219-16.872,56.54,11.267c1.14,7.417-0.849,13.377-4.208,20.7c-29.637,64.535-59.292,129.064-88.959,193.588  c-1.694,3.683-3.093,6.309-4.199,7.873c-12.734,18.006-39.914,16.401-50.994-2.392c-0.481-0.817-1.864-3.663-4.154-8.539  c-29.83-63.602-59.655-127.206-89.474-190.813c-2.294-4.889-4.116-9.081-4.492-14.303c-2.302-32.038,40.15-46.05,56.626-17.971  c0.482,0.822,1.871,3.665,4.168,8.53c21.172,44.842,42.334,89.692,63.486,134.545c0.023,0.051,0.084,0.071,0.134,0.05  C189.191,267.084,189.208,267.069,189.218,267.048z"></path>			<linearGradient id="SVGID_1_" gradientUnits="userSpaceOnUse" x1="170.8105" y1="556.8623" x2="327.6789" y2="713.7307" gradientTransform="matrix(1 0 0 1 468 -397)">		<stop offset="0" style="stop-color:#5979FB"></stop>		<stop offset="0.6649" style="stop-color:#9119FA"></stop>		<stop offset="1" style="stop-color:#9316FA"></stop>	</linearGradient>	<path fill="url(#SVGID_1_)" d="M810.927,313.203c-1.095,0.174-2.509,0.775-4.237,1.808c-20.377,12.124-42.837,19.396-66.715,18.675  c-40.403-1.22-83.281-14.379-96.366-57.828c-4.021-13.339-4.793-27.292-2.322-41.862c0.022-0.143,0.103-0.192,0.238-0.162  c45.909,10.156,92.305,13.123,139.19,8.901c9.768-0.881,19.404-2.516,28.902-4.91c13.766-3.465,21.367-10.251,22.682-24.989  c3.368-37.643-17.589-71.409-49.955-89.253c-15.243-8.343-31.54-13.274-48.896-14.796c-0.282-0.075-0.747-0.14-1.39-0.186  c-21.788-1.628-44.371,1.221-64.629,9.199c-39.399,15.515-69.922,50.465-78.863,92.078c-3.103,15.188-3.562,30.455-1.37,45.798  c3.77,25.699,15.129,49.852,31.88,69.476c26.103,30.575,63.767,45.751,103.67,46.325c34.72,0.499,69.338-15.983,93.852-39.57  c1.974-1.904,3.243-3.366,3.801-4.382C824.014,320.925,818.706,311.964,810.927,313.203z M740.255,154.77  c0.781-0.272,2.14-0.412,4.067-0.421c11.131-0.04,18.976-0.04,23.534,0.006c5.356,0.048,7.134,3.371,7.13,8.148  c-0.005,7.825-0.007,15.646-0.002,23.468c0,1.514-0.137,2.637-0.405,3.371c-2.009,5.474-9.967,5.436-12.06,0.097  c-0.302-0.776-0.457-1.983-0.463-3.626c-0.018-5.989-0.018-11.993-0.005-18.009c0-0.265-0.133-0.393-0.393-0.393  c-6.362-0.029-12.8-0.03-19.315-0.006C735.332,167.424,733.392,157.147,740.255,154.77z"></path></g></svg>